<mxfile host="Electron" agent="Mozilla/5.0 (Windows NT 10.0; Win64; x64) AppleWebKit/537.36 (KHTML, like Gecko) draw.io/24.7.17 Chrome/128.0.6613.36 Electron/32.0.1 Safari/537.36" version="24.7.17">
  <diagram name="Page-1" id="e7e014a7-5840-1c2e-5031-d8a46d1fe8dd">
    <mxGraphModel dx="1969" dy="984" grid="0" gridSize="10" guides="1" tooltips="1" connect="1" arrows="1" fold="1" page="1" pageScale="1" pageWidth="1654" pageHeight="1169" background="none" math="0" shadow="0">
      <root>
        <mxCell id="0" />
        <mxCell id="1" parent="0" />
        <mxCell id="qsG5yyOCol3htaI1OwtK-73" value="" style="rounded=0;whiteSpace=wrap;html=1;" vertex="1" parent="1">
          <mxGeometry x="534" y="167.5" width="610" height="823" as="geometry" />
        </mxCell>
        <mxCell id="qsG5yyOCol3htaI1OwtK-41" value="Register a new account" style="ellipse;whiteSpace=wrap;html=1;" vertex="1" parent="1">
          <mxGeometry x="622" y="180" width="140" height="70" as="geometry" />
        </mxCell>
        <mxCell id="qsG5yyOCol3htaI1OwtK-64" value="Login" style="ellipse;whiteSpace=wrap;html=1;" vertex="1" parent="1">
          <mxGeometry x="622" y="267" width="140" height="70" as="geometry" />
        </mxCell>
        <mxCell id="qsG5yyOCol3htaI1OwtK-65" value="Update inventory" style="ellipse;whiteSpace=wrap;html=1;" vertex="1" parent="1">
          <mxGeometry x="622" y="724" width="140" height="70" as="geometry" />
        </mxCell>
        <mxCell id="qsG5yyOCol3htaI1OwtK-66" value="Cancel order" style="ellipse;whiteSpace=wrap;html=1;" vertex="1" parent="1">
          <mxGeometry x="622" y="544" width="140" height="70" as="geometry" />
        </mxCell>
        <mxCell id="qsG5yyOCol3htaI1OwtK-67" value="Modify order state" style="ellipse;whiteSpace=wrap;html=1;" vertex="1" parent="1">
          <mxGeometry x="622" y="898" width="140" height="70" as="geometry" />
        </mxCell>
        <mxCell id="qsG5yyOCol3htaI1OwtK-68" value="Manage orders" style="ellipse;whiteSpace=wrap;html=1;" vertex="1" parent="1">
          <mxGeometry x="622" y="634" width="140" height="70" as="geometry" />
        </mxCell>
        <mxCell id="qsG5yyOCol3htaI1OwtK-69" value="Place order" style="ellipse;whiteSpace=wrap;html=1;" vertex="1" parent="1">
          <mxGeometry x="622" y="454" width="140" height="70" as="geometry" />
        </mxCell>
        <mxCell id="qsG5yyOCol3htaI1OwtK-70" value="&lt;span style=&quot;font-kerning: none;&quot; class=&quot;OYPEnA font-feature-liga-off font-feature-clig-off font-feature-calt-off text-decoration-none text-strikethrough-none&quot;&gt;Modify Cart&lt;/span&gt;" style="ellipse;whiteSpace=wrap;html=1;" vertex="1" parent="1">
          <mxGeometry x="622" y="357" width="140" height="70" as="geometry" />
        </mxCell>
        <mxCell id="qsG5yyOCol3htaI1OwtK-71" value="Generate report" style="ellipse;whiteSpace=wrap;html=1;" vertex="1" parent="1">
          <mxGeometry x="622" y="814" width="140" height="70" as="geometry" />
        </mxCell>
        <mxCell id="qsG5yyOCol3htaI1OwtK-74" value="Customer" style="shape=umlActor;verticalLabelPosition=bottom;verticalAlign=top;html=1;" vertex="1" parent="1">
          <mxGeometry x="340" y="414" width="99" height="211" as="geometry" />
        </mxCell>
        <mxCell id="qsG5yyOCol3htaI1OwtK-77" value="Admin" style="shape=umlActor;verticalLabelPosition=bottom;verticalAlign=top;html=1;" vertex="1" parent="1">
          <mxGeometry x="1199" y="462" width="99" height="210" as="geometry" />
        </mxCell>
        <mxCell id="qsG5yyOCol3htaI1OwtK-80" value="Delivery" style="shape=umlActor;verticalLabelPosition=bottom;verticalAlign=top;html=1;" vertex="1" parent="1">
          <mxGeometry x="1199" y="779.5" width="100" height="211" as="geometry" />
        </mxCell>
        <mxCell id="qsG5yyOCol3htaI1OwtK-84" value="" style="endArrow=none;html=1;rounded=0;exitX=1;exitY=0.3333333333333333;exitDx=0;exitDy=0;exitPerimeter=0;entryX=0;entryY=0.5;entryDx=0;entryDy=0;" edge="1" parent="1" source="qsG5yyOCol3htaI1OwtK-74" target="qsG5yyOCol3htaI1OwtK-41">
          <mxGeometry width="50" height="50" relative="1" as="geometry">
            <mxPoint x="441" y="402" as="sourcePoint" />
            <mxPoint x="491" y="352" as="targetPoint" />
          </mxGeometry>
        </mxCell>
        <mxCell id="qsG5yyOCol3htaI1OwtK-87" value="" style="endArrow=none;html=1;rounded=0;exitX=1;exitY=0.3333333333333333;exitDx=0;exitDy=0;exitPerimeter=0;entryX=0;entryY=0.5;entryDx=0;entryDy=0;" edge="1" parent="1" source="qsG5yyOCol3htaI1OwtK-74" target="qsG5yyOCol3htaI1OwtK-66">
          <mxGeometry width="50" height="50" relative="1" as="geometry">
            <mxPoint x="158" y="300" as="sourcePoint" />
            <mxPoint x="208" y="250" as="targetPoint" />
          </mxGeometry>
        </mxCell>
        <mxCell id="qsG5yyOCol3htaI1OwtK-88" value="" style="endArrow=none;html=1;rounded=0;exitX=1;exitY=0.5;exitDx=0;exitDy=0;entryX=0;entryY=0.3333333333333333;entryDx=0;entryDy=0;entryPerimeter=0;" edge="1" parent="1" source="qsG5yyOCol3htaI1OwtK-65" target="qsG5yyOCol3htaI1OwtK-77">
          <mxGeometry width="50" height="50" relative="1" as="geometry">
            <mxPoint x="66" y="375" as="sourcePoint" />
            <mxPoint x="116" y="325" as="targetPoint" />
          </mxGeometry>
        </mxCell>
        <mxCell id="qsG5yyOCol3htaI1OwtK-89" value="" style="endArrow=none;html=1;rounded=0;exitX=1;exitY=0.5;exitDx=0;exitDy=0;entryX=0;entryY=0.3333333333333333;entryDx=0;entryDy=0;entryPerimeter=0;" edge="1" parent="1" source="qsG5yyOCol3htaI1OwtK-68" target="qsG5yyOCol3htaI1OwtK-77">
          <mxGeometry width="50" height="50" relative="1" as="geometry">
            <mxPoint x="114" y="387" as="sourcePoint" />
            <mxPoint x="331" y="325" as="targetPoint" />
          </mxGeometry>
        </mxCell>
        <mxCell id="qsG5yyOCol3htaI1OwtK-90" value="" style="endArrow=none;html=1;rounded=0;entryX=1;entryY=0.3333333333333333;entryDx=0;entryDy=0;entryPerimeter=0;exitX=0;exitY=0.5;exitDx=0;exitDy=0;" edge="1" parent="1" source="qsG5yyOCol3htaI1OwtK-69" target="qsG5yyOCol3htaI1OwtK-74">
          <mxGeometry width="50" height="50" relative="1" as="geometry">
            <mxPoint x="185" y="398" as="sourcePoint" />
            <mxPoint x="442" y="478" as="targetPoint" />
          </mxGeometry>
        </mxCell>
        <mxCell id="qsG5yyOCol3htaI1OwtK-91" value="" style="endArrow=none;html=1;rounded=0;exitX=1;exitY=0.3333333333333333;exitDx=0;exitDy=0;exitPerimeter=0;entryX=0;entryY=0.5;entryDx=0;entryDy=0;" edge="1" parent="1" source="qsG5yyOCol3htaI1OwtK-74" target="qsG5yyOCol3htaI1OwtK-70">
          <mxGeometry width="50" height="50" relative="1" as="geometry">
            <mxPoint x="241" y="327" as="sourcePoint" />
            <mxPoint x="291" y="277" as="targetPoint" />
          </mxGeometry>
        </mxCell>
        <mxCell id="qsG5yyOCol3htaI1OwtK-92" value="" style="endArrow=none;html=1;rounded=0;entryX=1;entryY=0.3333333333333333;entryDx=0;entryDy=0;entryPerimeter=0;exitX=0;exitY=0.5;exitDx=0;exitDy=0;" edge="1" parent="1" source="qsG5yyOCol3htaI1OwtK-64" target="qsG5yyOCol3htaI1OwtK-74">
          <mxGeometry width="50" height="50" relative="1" as="geometry">
            <mxPoint x="264" y="396" as="sourcePoint" />
            <mxPoint x="314" y="346" as="targetPoint" />
          </mxGeometry>
        </mxCell>
        <mxCell id="qsG5yyOCol3htaI1OwtK-93" value="" style="endArrow=none;html=1;rounded=0;exitX=1;exitY=0.5;exitDx=0;exitDy=0;entryX=0;entryY=0.3333333333333333;entryDx=0;entryDy=0;entryPerimeter=0;" edge="1" parent="1" source="qsG5yyOCol3htaI1OwtK-67" target="qsG5yyOCol3htaI1OwtK-80">
          <mxGeometry width="50" height="50" relative="1" as="geometry">
            <mxPoint x="540" y="576" as="sourcePoint" />
            <mxPoint x="590" y="526" as="targetPoint" />
          </mxGeometry>
        </mxCell>
        <mxCell id="qsG5yyOCol3htaI1OwtK-96" value="" style="endArrow=none;html=1;rounded=0;exitX=1;exitY=0.3333333333333333;exitDx=0;exitDy=0;exitPerimeter=0;entryX=0;entryY=0.5;entryDx=0;entryDy=0;" edge="1" parent="1" source="qsG5yyOCol3htaI1OwtK-74" target="qsG5yyOCol3htaI1OwtK-67">
          <mxGeometry width="50" height="50" relative="1" as="geometry">
            <mxPoint x="539" y="575" as="sourcePoint" />
            <mxPoint x="482" y="843" as="targetPoint" />
          </mxGeometry>
        </mxCell>
        <mxCell id="qsG5yyOCol3htaI1OwtK-97" value="Validate info" style="ellipse;whiteSpace=wrap;html=1;" vertex="1" parent="1">
          <mxGeometry x="856" y="180" width="140" height="70" as="geometry" />
        </mxCell>
        <mxCell id="qsG5yyOCol3htaI1OwtK-98" value="Verify info" style="ellipse;whiteSpace=wrap;html=1;" vertex="1" parent="1">
          <mxGeometry x="856" y="267" width="140" height="70" as="geometry" />
        </mxCell>
        <mxCell id="qsG5yyOCol3htaI1OwtK-99" value="&amp;lt;&amp;lt;include&amp;gt;&amp;gt;" style="html=1;verticalAlign=bottom;endArrow=open;dashed=1;endSize=8;curved=0;rounded=0;exitX=1;exitY=0.5;exitDx=0;exitDy=0;entryX=0;entryY=0.5;entryDx=0;entryDy=0;" edge="1" parent="1" source="qsG5yyOCol3htaI1OwtK-41" target="qsG5yyOCol3htaI1OwtK-97">
          <mxGeometry relative="1" as="geometry">
            <mxPoint x="867" y="399" as="sourcePoint" />
            <mxPoint x="787" y="399" as="targetPoint" />
          </mxGeometry>
        </mxCell>
        <mxCell id="qsG5yyOCol3htaI1OwtK-100" value="&amp;lt;&amp;lt;include&amp;gt;&amp;gt;" style="html=1;verticalAlign=bottom;endArrow=open;dashed=1;endSize=8;curved=0;rounded=0;exitX=1;exitY=0.5;exitDx=0;exitDy=0;entryX=0;entryY=0.5;entryDx=0;entryDy=0;" edge="1" parent="1" source="qsG5yyOCol3htaI1OwtK-64" target="qsG5yyOCol3htaI1OwtK-98">
          <mxGeometry relative="1" as="geometry">
            <mxPoint x="772" y="225" as="sourcePoint" />
            <mxPoint x="820" y="225" as="targetPoint" />
          </mxGeometry>
        </mxCell>
        <mxCell id="qsG5yyOCol3htaI1OwtK-101" value="Update quantity" style="ellipse;whiteSpace=wrap;html=1;" vertex="1" parent="1">
          <mxGeometry x="856" y="357" width="140" height="70" as="geometry" />
        </mxCell>
        <mxCell id="qsG5yyOCol3htaI1OwtK-103" value="Apply discount" style="ellipse;whiteSpace=wrap;html=1;" vertex="1" parent="1">
          <mxGeometry x="856" y="454" width="140" height="70" as="geometry" />
        </mxCell>
        <mxCell id="qsG5yyOCol3htaI1OwtK-104" value="&amp;lt;&amp;lt;extend&amp;gt;&amp;gt;" style="html=1;verticalAlign=bottom;endArrow=open;dashed=1;endSize=8;curved=0;rounded=0;exitX=0;exitY=0.5;exitDx=0;exitDy=0;entryX=1;entryY=0.5;entryDx=0;entryDy=0;" edge="1" parent="1" source="qsG5yyOCol3htaI1OwtK-103" target="qsG5yyOCol3htaI1OwtK-69">
          <mxGeometry relative="1" as="geometry">
            <mxPoint x="772" y="312" as="sourcePoint" />
            <mxPoint x="866" y="312" as="targetPoint" />
          </mxGeometry>
        </mxCell>
        <mxCell id="qsG5yyOCol3htaI1OwtK-105" value="&amp;lt;&amp;lt;include&amp;gt;&amp;gt;" style="html=1;verticalAlign=bottom;endArrow=open;dashed=1;endSize=8;curved=0;rounded=0;exitX=1;exitY=0.5;exitDx=0;exitDy=0;entryX=0;entryY=0.5;entryDx=0;entryDy=0;" edge="1" parent="1" source="qsG5yyOCol3htaI1OwtK-70" target="qsG5yyOCol3htaI1OwtK-101">
          <mxGeometry relative="1" as="geometry">
            <mxPoint x="772" y="312" as="sourcePoint" />
            <mxPoint x="866" y="312" as="targetPoint" />
          </mxGeometry>
        </mxCell>
      </root>
    </mxGraphModel>
  </diagram>
</mxfile>
